#!OML:ASF X:\für Bonn\!DataBase\2005_08_10_Bjorn_Final\c3d\bjorn.ASF
:FULLY-SPECIFIED
:DEGREES
62
root -2.67241 18.7103 15.8042 -535.066 16.3572 -536.504
lowerback 13.2441 3.87439 -6.17328
upperback 16.6619 9.54698 -4.76937
thorax 11.1323 6.04627 -1.83292
lowerneck -5.1913 -0.159991 3.58576
upperneck -12.695 -1.18102 1.36259
head -3.18755 -1.25273 -0.130816
rclavicle -8.82604e-014 4.13472e-014
rhumerus -3.64997 17.6046 -100.852
rradius 75.0755
rwrist 14.0964
rhand -38.3018 22.8412
rfingers 7.12502
rthumb -11.3303 -6.83275
lclavicle -8.82604e-014 4.13472e-014
lhumerus 5.10064 -50.5899 76.2427
lradius 41.519
lwrist 19.117
lhand -27.4944 6.72401
lfingers 7.12502
lthumb -0.897573 36.7019
rfemur 346.108 -11.6541 -344.182
rtibia 35.312
rfoot -23.3022 9.4127
rtoes -15.9207
lfemur -27.3528 0.185686 -9.32615
ltibia 40.914
lfoot -12.9267 -0.72048
ltoes -12.9489
63
root -2.65162 18.6997 15.8334 -535.535 16.6805 -536.557
lowerback 13.015 3.87863 -5.98228
upperback 16.6066 9.50579 -4.68985
thorax 11.189 6.01571 -1.82484
lowerneck -5.45655 -0.0671856 3.80623
upperneck -12.1242 -1.06433 1.10432
head -2.94524 -1.16375 -0.259344
rclavicle -7.95139e-014 2.46493e-014
rhumerus -3.1484 18.0248 -100.717
rradius 75.3357
rwrist 14.1604
rhand -38.3643 22.9129
rfingers 7.12502
rthumb -11.3906 -6.75773
lclavicle -7.95139e-014 2.46493e-014
lhumerus 4.96503 -51.4584 76.1178
lradius 42.2244
lwrist 19.2125
lhand -27.2377 6.01744
lfingers 7.12502
lthumb -0.649631 35.9962
rfemur 346.537 -11.1439 -344.243
rtibia 35.2872
rfoot -23.455 9.39393
rtoes -15.001
lfemur -26.8383 0.0912732 -9.28197
ltibia 40.9204
lfoot -12.9718 -0.42134
ltoes -13.346
64
root -2.6315 18.6906 15.86 -536.013 17.0035 -536.609
lowerback 12.7203 3.86519 -5.77929
upperback 16.5773 9.45235 -4.59596
thorax 11.3137 5.97793 -1.79624
lowerneck -5.73366 0.0472807 4.05281
upperneck -11.4962 -0.920701 0.773452
head -2.68436 -1.05738 -0.413831
rclavicle -4.92986e-014 1.09729e-013
rhumerus -2.62077 18.5201 -100.535
rradius 75.5998
rwrist 14.1385
rhand -38.4691 22.9824
rfingers 7.12502
rthumb -11.4917 -6.68259
lclavicle -4.92986e-014 1.09729e-013
lhumerus 4.85564 -52.1714 76.047
lradius 42.9067
lwrist 19.3467
lhand -26.9694 5.29382
lfingers 7.12502
lthumb -0.390546 35.2732
rfemur 346.964 -10.6829 -344.306
rtibia 35.2894
rfoot -23.5757 9.42532
rtoes -14.1635
lfemur -26.3019 -0.0348856 -9.24307
ltibia 40.9112
lfoot -13.0162 -0.0634261
ltoes -13.8103
65
root -2.61041 18.6816 15.8853 -536.505 17.3451 -536.677
lowerback 12.3793 3.85375 -5.57831
upperback 16.555 9.40888 -4.51148
thorax 11.4767 5.94508 -1.77049
lowerneck -5.95913 -0.952709 4.39621
upperneck -10.8359 -0.554297 0.64746
head -2.43603 -0.0751361 -0.549992
rclavicle 7.39479e-014 -6.75868e-014
rhumerus -2.04493 19.0409 -100.309
rradius 75.8598
rwrist 14.0992
rhand -38.6413 22.9955
rfingers 7.12502
rthumb -11.6577 -6.66014
lclavicle 7.39479e-014 -6.75868e-014
lhumerus 4.72592 -52.7788 76.0122
lradius 43.6461
lwrist 19.5064
lhand -26.7074 4.70303
lfingers 7.12502
lthumb -0.13751 34.6827
rfemur 347.391 -10.266 -344.383
rtibia 35.3117
rfoot -23.5114 9.46914
rtoes -13.5435
lfemur -25.7402 -0.147168 -9.22131
ltibia 40.8909
lfoot -13.0734 0.289548
ltoes -14.2297
